<?xml version="1.0" standalone="no"?>
<!DOCTYPE svg PUBLIC "-//W3C//DTD SVG 20010904//EN"
 "http://www.w3.org/TR/2001/REC-SVG-20010904/DTD/svg10.dtd">
<svg version="1.0" xmlns="http://www.w3.org/2000/svg"
 width="433.000000pt" height="577.000000pt" viewBox="0 0 433.000000 577.000000"
 preserveAspectRatio="xMidYMid meet">

<g transform="translate(0.000000,577.000000) scale(0.100000,-0.100000)"
fill="#000000" stroke="none">
<path d="M1975 4617 c-49 -20 -77 -38 -110 -71 -62 -62 -93 -81 -132 -79 l-38
2 46 -13 c25 -7 54 -18 64 -23 10 -6 26 -8 36 -6 10 3 28 -2 41 -11 18 -13 19
-16 5 -16 -20 0 -21 -10 -5 -46 10 -21 10 -28 -3 -38 -8 -6 -20 -23 -26 -38
-7 -16 -17 -28 -23 -28 -12 0 -14 27 -2 32 4 2 17 15 30 29 l23 26 -24 29
c-14 16 -44 39 -68 52 -24 13 -35 16 -25 8 11 -9 16 -16 12 -16 -4 0 0 -7 8
-16 9 -8 14 -19 11 -24 -3 -5 -1 -12 5 -15 7 -4 8 -23 4 -51 -3 -24 -2 -50 3
-57 5 -6 10 -27 11 -45 3 -36 -19 -52 -43 -32 -11 10 -16 6 -23 -22 -8 -31 -7
-33 20 -36 22 -3 25 -6 16 -16 -7 -7 -19 -11 -28 -9 -8 2 -21 -5 -28 -17 -14
-22 -10 -25 19 -10 13 7 19 7 19 0 0 -5 7 -10 16 -10 10 0 14 6 11 14 -3 8 0
17 6 19 7 3 29 13 50 22 22 9 36 11 32 6 -3 -6 -14 -11 -23 -11 -15 0 -15 -2
-2 -11 12 -9 12 -10 -3 -5 -13 4 -20 0 -24 -13 -5 -21 -55 -46 -87 -43 -16 1
-17 -1 -6 -8 11 -7 8 -11 -13 -21 -15 -7 -27 -19 -27 -27 0 -12 4 -11 26 3 15
9 23 12 20 6 -4 -6 -2 -11 4 -11 6 0 8 -5 4 -11 -5 -8 -8 -8 -13 0 -9 14 -51
-23 -51 -45 0 -9 -14 -46 -31 -82 -52 -112 -71 -203 -63 -305 4 -58 2 -103 -6
-135 -19 -73 -72 -214 -91 -242 -9 -14 -19 -35 -23 -47 -4 -12 -16 -25 -27
-28 -19 -6 -25 -20 -11 -28 4 -2 1 -2 -6 -1 -28 7 -102 -85 -102 -128 0 -10
-4 -17 -9 -13 -12 7 -42 -35 -34 -47 3 -5 -4 -16 -15 -24 -12 -8 -19 -21 -16
-28 3 -8 -6 -26 -20 -40 -17 -19 -28 -49 -37 -98 -14 -77 -9 -94 32 -115 19
-10 20 -13 6 -13 -10 0 -16 -4 -13 -9 4 -5 14 -8 24 -6 9 2 24 4 32 5 11 0 8
6 -9 20 l-23 20 26 0 c14 0 26 -5 26 -10 0 -7 19 -9 53 -5 48 6 51 5 33 -9
-19 -15 -19 -16 7 -16 15 0 27 -4 27 -10 0 -5 7 -10 15 -10 9 0 12 -6 8 -15
-3 -9 -8 -14 -10 -11 -5 5 -53 -34 -53 -44 0 -4 14 -5 30 -2 22 3 30 0 30 -11
0 -8 7 -18 16 -21 15 -6 15 -8 1 -24 -11 -12 -13 -22 -6 -35 8 -13 6 -19 -5
-23 -21 -8 -20 -24 0 -24 14 0 14 -3 4 -15 -10 -12 -10 -15 3 -15 10 0 13 -6
10 -20 -8 -29 27 -26 61 5 43 39 72 56 108 62 l33 5 -38 -30 c-21 -17 -47 -42
-58 -56 -18 -23 -18 -25 -2 -41 13 -14 14 -21 5 -36 -16 -26 -15 -34 3 -19 8
7 15 19 15 27 0 8 4 12 9 9 5 -3 8 0 7 7 0 6 2 12 5 12 3 0 14 7 25 15 17 14
18 14 6 -2 -8 -9 -11 -21 -8 -26 3 -5 -4 -24 -15 -43 -18 -31 -16 -30 21 11
22 25 40 48 40 53 0 4 4 7 9 7 5 0 -6 -23 -25 -51 -37 -56 -38 -74 -2 -43 18
15 20 16 9 2 -14 -19 -14 -19 29 -22 21 -2 19 -45 -2 -75 -10 -13 -18 -29 -18
-35 0 -5 -21 -32 -47 -58 -26 -26 -43 -48 -37 -48 5 0 16 6 23 13 8 6 11 7 8
1 -4 -6 3 -20 14 -30 20 -18 21 -18 40 6 10 14 17 30 15 37 -3 6 1 19 8 28 10
14 11 10 9 -22 -1 -21 -9 -58 -17 -82 -17 -47 -22 -93 -6 -54 15 36 20 27 16
-27 -3 -54 5 -63 22 -27 l11 22 1 -25 c1 -23 2 -23 10 -5 9 20 11 -1 14 -100
1 -27 4 -30 31 -27 16 2 27 0 23 -3 -4 -4 0 -14 8 -22 8 -9 13 -22 10 -29 -3
-7 -1 -16 4 -19 6 -4 10 6 10 20 0 14 4 24 9 20 5 -3 12 3 14 12 4 17 3 10 -8
-87 -3 -31 -2 -37 4 -20 6 21 9 14 15 -38 5 -34 15 -69 23 -78 18 -17 17 -18
37 21 l16 30 0 -45 c0 -30 3 -40 9 -31 7 11 10 10 13 -5 2 -10 7 5 11 34 7 45
10 52 22 42 8 -7 15 -9 15 -4 0 4 5 3 12 -4 6 -6 11 -35 11 -64 -1 -29 1 -44
4 -34 4 15 7 16 14 5 7 -11 9 -9 9 6 1 18 2 17 15 -5 9 -15 15 -19 15 -10 1
19 29 -29 30 -51 0 -8 7 -24 16 -35 14 -18 15 -17 11 14 -2 18 0 35 4 38 5 2
5 12 2 21 -4 10 -2 14 4 10 18 -11 45 -115 39 -149 -4 -22 -3 -26 2 -14 6 14
11 16 16 8 9 -15 26 -16 26 -1 0 5 -4 7 -10 4 -6 -4 -10 7 -10 26 0 31 1 32
15 13 8 -10 15 -15 15 -10 0 5 11 -4 24 -19 l25 -29 -9 40 c-7 31 -6 36 3 24
13 -16 51 -24 41 -9 -3 5 -1 9 3 9 5 0 19 -23 30 -50 12 -28 26 -50 32 -50 9
0 9 6 1 20 -6 11 -7 20 -2 20 5 0 21 -26 35 -57 23 -54 86 -138 88 -117 0 5 4
0 8 -10 4 -11 15 -20 24 -22 14 -2 15 1 5 19 -10 19 -9 20 4 9 19 -15 31 -2
17 18 -12 20 -11 33 1 25 6 -4 6 3 0 21 -9 23 -8 25 3 15 18 -14 43 11 31 31
-6 10 -3 9 9 -1 15 -12 17 -11 18 8 2 33 4 39 11 46 4 4 10 -4 14 -18 3 -15
11 -25 16 -24 6 1 23 -23 39 -54 24 -48 78 -104 79 -82 0 5 5 0 11 -10 6 -9
14 -15 19 -12 4 3 10 -2 14 -10 3 -8 10 -15 16 -15 6 0 3 11 -6 25 -8 13 -12
30 -8 37 4 7 3 10 -1 5 -10 -9 -36 45 -41 87 -3 24 -2 26 10 16 8 -6 12 -19 9
-28 -4 -15 -3 -15 6 -2 6 8 11 11 12 5 4 -51 42 -116 75 -129 7 -3 14 -12 14
-21 0 -8 5 -15 10 -15 15 0 12 23 -5 46 -17 23 -19 38 -4 28 8 -4 8 0 0 15 -7
11 -8 21 -3 21 17 0 22 73 7 96 -12 19 -12 22 0 20 8 -1 23 -10 35 -21 20 -18
20 -18 20 15 0 27 3 32 20 27 19 -5 24 3 23 41 -1 6 6 12 14 12 8 0 12 4 8 10
-3 5 7 5 25 -1 16 -6 33 -15 36 -20 3 -5 10 -9 15 -9 6 0 -3 11 -19 25 -36 30
-47 61 -21 61 10 0 16 -2 14 -5 -3 -2 16 -19 41 -36 26 -18 88 -72 139 -119
84 -77 127 -110 96 -72 -9 11 -9 16 0 22 8 5 9 3 4 -6 -5 -9 -4 -11 3 -6 7 4
12 9 12 11 0 2 -35 29 -77 60 -43 32 -77 61 -76 66 2 5 0 8 -5 7 -7 -3 -122
61 -122 67 0 7 44 -5 54 -15 5 -5 17 -10 25 -10 17 -1 132 -80 116 -80 -5 0 1
-7 13 -16 19 -13 24 -13 36 -1 22 22 9 50 -32 69 l-37 18 48 -6 c38 -4 47 -2
47 10 0 8 -10 22 -22 30 -17 12 -18 16 -6 16 8 0 21 7 28 14 10 13 4 17 -35
29 l-47 13 26 18 c15 9 24 22 20 28 -4 6 1 17 11 25 14 10 15 13 4 14 -8 0
-25 2 -39 4 -14 1 -38 -3 -55 -10 -57 -25 -155 -55 -178 -55 -20 1 -21 2 -4
14 20 16 22 32 5 40 -7 3 1 3 17 1 17 -3 24 -2 17 1 -18 8 25 49 72 69 20 8
36 19 36 24 0 4 18 16 40 26 22 10 40 23 40 28 0 6 7 18 16 28 12 13 12 19 3
25 -8 4 -10 3 -5 -4 4 -7 2 -12 -4 -12 -7 0 -29 -13 -49 -28 -20 -15 -48 -33
-62 -41 -37 -18 -85 -61 -81 -73 1 -5 -2 -7 -8 -3 -6 3 -7 12 -3 18 5 9 3 9
-8 0 -8 -7 -20 -8 -28 -4 -9 6 -5 10 15 15 21 6 24 10 14 16 -11 7 -11 11 -1
24 8 9 9 16 3 16 -16 0 -2 42 24 70 35 39 129 153 139 170 7 12 6 13 -7 3 -19
-17 -32 -4 -15 15 10 14 9 15 -8 7 -11 -4 -30 -8 -42 -8 -13 1 -23 -4 -23 -11
0 -7 -3 -7 -8 -1 -4 6 -41 10 -82 10 -78 0 -168 11 -204 25 -12 4 -30 7 -41 6
-72 -7 -144 -19 -167 -29 l-27 -12 22 -13 c19 -11 11 -12 -63 -8 -103 6 -125
12 -106 31 8 8 23 11 36 8 16 -4 21 -3 16 6 -5 7 4 14 26 18 32 7 32 7 8 14
-23 6 -22 7 10 9 l35 2 -30 8 -30 8 33 1 c59 2 33 17 -30 17 -133 1 -207 17
-288 62 -54 30 -82 62 -70 78 6 7 -4 24 -29 48 -25 25 -37 44 -34 54 5 11 3
13 -7 7 -9 -6 -11 -4 -6 4 6 9 13 8 27 -5 10 -9 19 -13 19 -8 0 5 7 0 15 -10
13 -17 15 -17 15 -3 0 9 -6 20 -13 24 -18 11 -67 80 -67 93 0 6 -3 9 -7 7 -5
-3 -9 6 -9 19 -1 13 1 24 5 25 3 0 13 2 21 3 23 5 60 -12 60 -27 0 -12 71 -77
85 -77 3 0 -2 11 -10 24 -11 16 -13 26 -5 31 6 3 8 11 5 16 -4 5 0 12 9 15 8
3 12 12 9 20 -3 8 1 14 11 14 18 0 22 15 6 25 -5 3 -10 25 -10 48 1 36 2 40
13 25 7 -9 26 -18 42 -20 l30 -3 -23 -13 c-19 -11 -26 -11 -39 0 -13 10 -13 8
2 -15 13 -20 21 -25 30 -17 7 6 25 8 39 4 19 -4 26 -2 26 9 0 8 8 18 18 22 14
5 9 10 -23 26 -49 24 -59 34 -50 49 5 8 10 8 20 0 15 -12 31 3 20 19 -3 6 3 9
13 8 10 0 19 -9 20 -21 0 -11 7 -25 14 -31 16 -12 23 -141 9 -159 -11 -14 -11
-56 1 -56 4 0 8 -9 8 -20 0 -17 4 -18 25 -10 14 5 25 6 25 1 0 -5 -11 -12 -25
-15 -14 -4 -25 -13 -25 -21 0 -19 -8 -19 -27 1 -12 12 -18 12 -23 3 -4 -6 -13
-8 -19 -5 -6 4 -11 2 -11 -4 0 -6 -4 -8 -10 -5 -5 3 -14 3 -20 0 -19 -12 22
-55 64 -67 22 -6 46 -15 53 -20 6 -5 24 -13 40 -17 15 -5 36 -12 46 -16 30
-13 18 10 -14 24 -16 7 -28 15 -25 18 2 2 13 0 24 -6 16 -8 24 -7 36 4 8 8 19
15 24 15 6 0 12 7 16 15 8 21 -4 19 -31 -7 -19 -18 -25 -19 -36 -9 -9 11 -9
14 1 18 6 3 12 12 12 20 0 14 -3 14 -20 -2 -18 -16 -20 -16 -36 0 -13 12 -13
16 -3 14 8 -1 21 1 29 4 8 3 24 8 35 11 11 3 3 4 -17 3 -38 -3 -52 13 -26 29
7 4 8 3 4 -4 -5 -8 3 -12 26 -11 20 1 25 3 14 6 -15 4 -16 7 -5 14 11 7 9 10
-9 15 -18 5 -21 9 -10 16 9 7 2 8 -19 4 -18 -3 -33 -2 -33 3 0 13 26 32 33 24
4 -3 7 -1 7 5 0 7 8 12 18 12 9 0 38 18 65 41 38 33 47 47 47 72 0 26 6 35 30
45 17 8 30 20 30 27 0 8 7 18 16 23 18 10 28 129 12 150 -7 8 -6 17 3 28 11
14 9 20 -21 44 l-34 28 28 -3 c15 -2 33 -9 41 -15 12 -10 15 -9 15 4 0 9 -16
31 -36 48 -34 30 -49 37 -81 40 -7 1 -14 7 -17 14 -4 10 2 10 25 2 31 -11 64
-4 54 11 -3 5 7 11 22 13 l28 3 -38 24 c-21 13 -36 29 -34 35 3 7 -19 32 -49
57 -30 24 -54 49 -54 56 0 6 -5 15 -12 19 -7 5 -9 2 -4 -7 4 -8 -1 -3 -13 11
-18 22 -18 25 -4 29 10 2 25 -7 35 -19 25 -30 33 -19 14 17 -8 16 -13 38 -12
49 2 10 -5 27 -16 38 -11 10 -17 21 -13 24 3 4 10 0 15 -8 7 -11 10 -3 10 28
0 24 -5 42 -11 42 -6 0 -9 7 -6 15 4 8 1 17 -5 21 -7 5 -8 2 -3 -7 5 -8 4 -11
0 -6 -16 14 -16 47 -1 41 11 -4 13 0 9 18 -7 33 -36 88 -43 83 -4 -2 -7 1 -7
8 0 7 -4 20 -8 30 -4 11 -3 17 5 17 7 0 10 7 7 15 -4 8 -1 17 4 21 13 7 5 43
-21 96 -10 21 -14 40 -9 44 24 14 -5 196 -41 262 -12 20 -32 52 -46 71 -20 29
-23 42 -18 80 5 43 3 49 -33 91 -33 39 -34 43 -11 27 15 -9 30 -17 33 -17 13
0 -16 112 -38 148 -5 7 -4 12 2 12 13 0 -7 38 -29 57 -13 11 -12 12 5 13 18 1
17 2 -5 15 -21 12 -22 14 -6 15 15 0 17 6 14 29 -3 18 0 28 6 24 5 -4 7 1 3
11 -5 11 1 31 13 51 22 35 17 50 -11 34 -15 -7 -19 -6 -19 6 0 24 38 55 68 55
19 0 40 12 67 40 21 22 35 40 29 40 -5 0 -14 -4 -20 -8 -5 -5 -37 -21 -71 -36
-61 -26 -63 -27 -122 -11 -32 8 -74 15 -93 15 -31 0 -67 12 -120 40 -28 15
-112 19 -143 7z m-45 -233 c0 -8 -5 -12 -10 -9 -6 4 -8 11 -5 16 9 14 15 11
15 -7z m-120 -379 c-7 -8 -17 -12 -23 -8 -6 4 -3 11 8 19 23 17 32 10 15 -11z
m625 -14 c-6 -5 -25 10 -25 20 0 5 6 4 14 -3 8 -7 12 -15 11 -17z m101 -462
c3 -6 -5 -3 -20 6 -14 10 -26 19 -26 22 0 7 39 -17 46 -28z m-866 -101 c-8 -7
-20 -20 -26 -28 -11 -13 -12 -13 -11 0 4 25 17 40 35 40 14 0 14 -2 2 -12z
m910 -3 c11 -13 10 -14 -4 -9 -9 3 -16 10 -16 15 0 13 6 11 20 -6z m-960 -61
c0 -8 -5 -12 -10 -9 -6 4 -8 11 -5 16 9 14 15 11 15 -7z m900 -14 c0 -5 -2
-10 -4 -10 -3 0 -8 5 -11 10 -3 6 -1 10 4 10 6 0 11 -4 11 -10z m-860 -24 c0
-2 -7 -7 -16 -10 -8 -3 -12 -2 -9 4 6 10 25 14 25 6z m907 -86 c15 -11 20 -20
12 -20 -18 1 -68 39 -51 40 8 0 25 -9 39 -20z m31 -88 c17 -11 20 -17 10 -23
-13 -8 -58 26 -58 43 0 9 6 7 48 -20z m27 -133 c11 -17 -1 -21 -15 -4 -8 9 -8
15 -2 15 6 0 14 -5 17 -11z m-1205 -199 c0 -5 -7 -10 -16 -10 -8 0 -12 5 -9
10 3 6 10 10 16 10 5 0 9 -4 9 -10z m-135 -9 c3 -5 0 -13 -6 -17 -7 -4 -9 -3
-5 4 3 5 0 13 -6 15 -9 4 -10 6 -1 6 6 1 14 -3 18 -8z m10 -79 c-3 -3 -11 0
-18 7 -9 10 -8 11 6 5 10 -3 15 -9 12 -12z m4 -76 c10 -12 7 -15 -18 -14 -25
1 -29 4 -20 15 15 17 24 17 38 -1z m1431 -21 c13 -14 21 -25 18 -25 -2 0 -15
11 -28 25 -13 14 -21 25 -18 25 2 0 15 -11 28 -25z m-1440 -15 c-11 -7 -11
-10 -2 -10 7 0 10 -5 6 -11 -4 -8 -9 -7 -15 2 -9 15 -3 29 14 29 7 0 6 -4 -3
-10z m100 -17 c0 -5 -11 -9 -25 -9 -14 -1 -22 2 -19 7 6 11 44 12 44 2z m1355
-71 c-3 -3 -11 0 -18 7 -9 10 -8 11 6 5 10 -3 15 -9 12 -12z m-45 -114 c0 -6
-7 -5 -15 2 -8 7 -15 17 -15 22 0 6 7 5 15 -2 8 -7 15 -17 15 -22z m27 0 c-3
-8 -6 -5 -6 6 -1 11 2 17 5 13 3 -3 4 -12 1 -19z m53 -13 c0 -5 -5 -3 -10 5
-5 8 -10 20 -10 25 0 6 5 3 10 -5 5 -8 10 -19 10 -25z m-220 -14 c0 -4 -5 -12
-11 -18 -16 -16 -40 6 -25 23 11 11 36 8 36 -5z m-820 5 c0 -2 -8 -10 -17 -17
-16 -13 -17 -12 -4 4 13 16 21 21 21 13z m930 -28 c0 -17 -3 -18 -15 -8 -8 7
-15 19 -15 26 0 8 6 11 15 8 8 -4 15 -15 15 -26z m-1010 -12 c0 -2 -8 -10 -17
-17 -16 -13 -17 -12 -4 4 13 16 21 21 21 13z m910 -29 c0 -5 -4 -5 -10 -2 -5
3 -10 14 -10 23 0 15 2 15 10 2 5 -8 10 -19 10 -23z m-824 -92 c-15 -19 -30
-35 -33 -35 -3 0 0 6 6 13 6 8 7 18 3 22 -4 5 -2 5 4 2 6 -4 16 5 23 20 6 14
14 23 18 20 3 -4 -6 -22 -21 -42z m881 -20 c0 -9 -6 -14 -14 -11 -7 3 -13 1
-13 -4 0 -6 -9 -10 -21 -10 -24 0 -16 18 15 30 30 12 33 12 33 -5z m-483 -51
c3 -8 2 -12 -4 -9 -6 3 -10 10 -10 16 0 14 7 11 14 -7z m16 -118 c0 -6 -7 -1
-15 10 -8 10 -15 23 -15 28 0 6 7 1 15 -10 8 -10 15 -23 15 -28z m404 -47
c-30 -12 -37 -10 -24 5 6 8 19 12 27 9 14 -6 14 -8 -3 -14z m3 -205 c-3 -3
-12 -4 -19 -1 -8 3 -5 6 6 6 11 1 17 -2 13 -5z m40 -120 c-3 -3 -12 -4 -19 -1
-8 3 -5 6 6 6 11 1 17 -2 13 -5z m539 -13 c-15 -24 -118 -83 -152 -88 -22 -2
-46 -6 -54 -9 -28 -9 11 21 55 43 79 40 95 46 101 40 4 -3 16 0 28 8 23 17 29
19 22 6z m-109 -197 c-3 -3 -12 -4 -19 -1 -8 3 -5 6 6 6 11 1 17 -2 13 -5z
m-223 -320 c20 -20 35 -38 32 -41 -6 -6 61 -115 77 -125 6 -3 12 -17 14 -29 2
-14 0 -19 -5 -14 -7 8 -115 150 -156 204 -9 12 -8 13 4 7 9 -4 8 -1 -2 7 -10
8 -18 17 -18 21 0 14 19 4 54 -30z m-324 -34 c6 -11 7 -20 2 -20 -6 0 -12 9
-15 20 -3 11 -3 20 -1 20 2 0 8 -9 14 -20z m325 -72 c2 -27 -2 -23 -30 35
l-26 52 28 -34 c15 -19 28 -42 28 -53z"/>
<path d="M973 2512 c-10 -7 -10 -14 0 -35 6 -15 15 -27 20 -27 4 0 27 -18 51
-40 48 -44 56 -48 56 -24 0 8 -4 12 -10 9 -5 -3 -10 1 -10 9 0 9 -4 16 -10 16
-5 0 -7 7 -4 15 4 8 1 15 -5 15 -6 0 -11 5 -11 11 0 12 -46 59 -58 59 -4 0
-13 -4 -19 -8z"/>
<path d="M1388 2513 c7 -3 16 -2 19 1 4 3 -2 6 -13 5 -11 0 -14 -3 -6 -6z"/>
<path d="M1190 2441 c0 -9 24 -21 42 -21 5 0 8 5 6 12 -5 13 -48 22 -48 9z"/>
<path d="M1164 2394 c9 -8 16 -22 16 -29 0 -8 9 -20 20 -28 11 -8 17 -17 13
-21 -4 -3 8 1 27 10 28 14 31 19 18 28 -8 6 -13 16 -11 22 4 13 -18 24 -65 30
-31 4 -32 3 -18 -12z"/>
<path d="M1315 2400 c-3 -5 -1 -10 4 -10 6 0 11 5 11 10 0 6 -2 10 -4 10 -3 0
-8 -4 -11 -10z"/>
<path d="M1355 2320 c-3 -6 1 -7 9 -4 18 7 21 14 7 14 -6 0 -13 -4 -16 -10z"/>
<path d="M1250 2266 c0 -14 4 -27 9 -30 12 -8 22 20 15 39 -9 23 -24 18 -24
-9z"/>
<path d="M1286 2235 c-3 -9 10 -26 34 -45 22 -18 40 -29 40 -26 0 12 -24 56
-31 56 -4 0 -14 7 -22 15 -13 12 -16 12 -21 0z"/>
<path d="M2350 2186 c0 -2 9 -6 20 -9 11 -3 20 -1 20 4 0 5 -9 9 -20 9 -11 0
-20 -2 -20 -4z"/>
<path d="M2413 2155 c0 -8 4 -12 9 -9 4 3 8 9 8 15 0 5 -4 9 -8 9 -5 0 -9 -7
-9 -15z"/>
<path d="M2705 2115 c-25 -12 -26 -14 -5 -9 14 4 29 10 35 15 12 12 5 11 -30
-6z"/>
<path d="M2889 2103 c-13 -16 -12 -17 4 -4 16 13 21 21 13 21 -2 0 -10 -8 -17
-17z"/>
<path d="M2925 2102 c-10 -7 -18 -32 -10 -32 2 0 9 9 15 20 12 22 11 24 -5 12z"/>
<path d="M2965 2100 c-16 -7 -17 -9 -3 -9 9 -1 20 4 23 9 7 11 7 11 -20 0z"/>
<path d="M2660 2080 c-20 -6 -21 -8 -5 -8 11 0 31 4 45 8 20 6 21 8 5 8 -11 0
-31 -4 -45 -8z"/>
<path d="M2944 2057 c-4 -11 -14 -13 -40 -7 -19 4 -34 4 -34 0 0 -10 -26 -7
-36 3 -11 11 -44 8 -44 -3 0 -5 -7 -10 -15 -10 -8 0 -15 -4 -15 -8 0 -5 -14
-6 -31 -4 -22 3 -30 1 -25 -7 4 -6 1 -11 -8 -11 -9 0 -21 -9 -28 -20 -7 -11
-21 -20 -31 -20 -10 0 -15 -5 -12 -10 4 -6 1 -18 -7 -27 -10 -13 -10 -15 0 -9
8 5 35 -3 67 -19 30 -14 71 -27 90 -28 36 -2 49 -16 18 -18 -10 -1 -2 -5 17
-8 19 -4 39 -5 44 -3 4 3 26 5 48 6 28 2 46 10 64 29 25 27 71 39 59 15 -4 -7
3 -2 14 11 31 35 26 41 -29 34 -34 -4 -50 -2 -50 6 0 6 8 11 18 11 10 0 23 5
30 12 14 14 16 42 2 33 -5 -3 -10 1 -10 9 0 10 -9 16 -21 16 -14 0 -19 5 -16
15 4 8 2 17 -4 20 -5 4 -12 0 -15 -8z m4 -154 c-2 -9 -18 -23 -36 -30 -32 -13
-32 -13 -22 6 18 35 64 54 58 24z"/>
<path d="M2673 2053 c9 -2 23 -2 30 0 6 3 -1 5 -18 5 -16 0 -22 -2 -12 -5z"/>
<path d="M1523 2040 c-26 -10 -31 -30 -8 -30 8 0 19 9 25 20 6 11 9 20 8 19
-2 0 -13 -4 -25 -9z"/>
<path d="M3080 1995 c0 -8 5 -15 10 -15 6 0 10 7 10 15 0 8 -4 15 -10 15 -5 0
-10 -7 -10 -15z"/>
<path d="M2985 1880 c-3 -6 1 -7 9 -4 18 7 21 14 7 14 -6 0 -13 -4 -16 -10z"/>
<path d="M2571 1846 c2 -2 18 -6 34 -10 22 -5 26 -4 15 4 -14 9 -59 15 -49 6z"/>
<path d="M2673 1843 c9 -2 25 -2 35 0 9 3 1 5 -18 5 -19 0 -27 -2 -17 -5z"/>
<path d="M2720 1830 c-27 -6 -29 -8 -10 -8 14 -1 43 3 65 7 33 7 35 9 10 9
-16 -1 -46 -4 -65 -8z"/>
<path d="M2548 1723 c7 -3 16 -2 19 1 4 3 -2 6 -13 5 -11 0 -14 -3 -6 -6z"/>
<path d="M3354 1686 c-21 -19 -48 -49 -58 -67 l-19 -32 36 29 c21 16 37 32 37
36 0 3 12 20 26 37 33 40 27 39 -22 -3z"/>
<path d="M3345 1601 c-27 -17 -81 -71 -70 -71 2 0 24 13 48 30 72 48 91 84 22
41z"/>
<path d="M3677 1279 c-15 -4 -27 -5 -27 -2 0 4 -9 -2 -20 -12 -14 -12 -40 -19
-87 -22 -121 -6 -80 -14 50 -9 119 4 157 13 157 36 0 12 -42 17 -73 9z m60
-15 c-3 -3 -12 -4 -19 -1 -8 3 -5 6 6 6 11 1 17 -2 13 -5z"/>
<path d="M3605 1270 c-3 -5 -2 -10 4 -10 5 0 13 5 16 10 3 6 2 10 -4 10 -5 0
-13 -4 -16 -10z"/>
<path d="M3590 1160 c0 -14 34 -26 96 -35 40 -5 52 -3 57 8 3 9 -4 19 -19 26
-31 14 -134 15 -134 1z"/>
</g>
</svg>
